<?xml version="1.0" standalone="no"?>
<!DOCTYPE svg PUBLIC "-//W3C//DTD SVG 20010904//EN"
 "http://www.w3.org/TR/2001/REC-SVG-20010904/DTD/svg10.dtd">
<svg version="1.0" xmlns="http://www.w3.org/2000/svg"
 width="768.000000pt" height="512.000000pt" viewBox="0 0 768.000000 512.000000"
 preserveAspectRatio="xMidYMid meet">
<metadata>
Created by potrace 1.16, written by Peter Selinger 2001-2019
</metadata>
<g transform="translate(0.000000,512.000000) scale(0.100000,-0.100000)"
fill="#000000" stroke="none">
<path d="M0 2560 l0 -2560 480 0 c287 0 480 4 480 9 0 5 12 24 26 41 25 29 25
32 9 44 -9 7 -16 20 -14 30 5 23 52 51 73 43 28 -11 18 -52 -25 -101 -23 -26
-38 -50 -34 -54 3 -4 490 -8 1081 -10 952 -2 1077 -1 1097 13 27 19 56 19 63
0 5 -13 261 -15 2225 -15 l2219 0 0 2560 0 2560 -2820 0 -2819 0 -5 -32 c-3
-18 -12 -94 -21 -168 -24 -201 -25 -204 -38 -191 -8 8 -6 53 11 179 12 92 22
177 22 190 l0 22 -1005 0 -1005 0 0 -2560z m2145 2316 c11 -8 16 -19 12 -30
-8 -19 -27 -12 -27 10 0 9 -11 14 -35 14 -28 0 -37 -5 -50 -30 -20 -39 -19
-56 5 -80 13 -13 33 -20 59 -20 72 0 119 76 71 117 -11 10 -20 21 -20 25 0 17
30 7 46 -15 17 -22 18 -23 51 -6 39 20 69 15 85 -14 13 -25 5 -215 -12 -293
-14 -67 -46 -99 -84 -85 -46 18 -61 105 -30 179 17 41 71 102 90 102 17 0 27
17 19 30 -5 8 -11 7 -21 0 -7 -7 -30 -13 -51 -14 -21 -1 -51 -11 -68 -21 -37
-25 -113 -25 -149 -2 -21 14 -26 26 -26 56 0 55 31 91 79 91 20 0 46 -6 56
-14z m1819 -32 c9 -8 16 -24 16 -35 0 -17 4 -15 28 10 38 42 74 49 101 20 27
-29 22 -73 -21 -204 -37 -114 -63 -157 -92 -153 -18 3 -21 11 -24 52 -4 61 18
123 58 161 43 41 46 26 6 -34 -33 -49 -57 -134 -41 -149 16 -16 65 90 90 196
11 48 11 53 -4 46 -50 -20 -101 -15 -101 11 0 9 -9 5 -26 -12 -23 -23 -31 -25
-81 -21 -86 7 -103 51 -41 103 35 30 107 35 132 9z m-3657 -229 c0 -38 2 -76
2 -82 1 -7 10 -22 21 -33 20 -20 20 -20 0 -20 -11 0 -25 11 -33 25 l-13 26
-19 -21 c-21 -23 -63 -26 -89 -7 -38 28 -10 146 42 177 9 5 33 9 52 7 l35 -2
2 -70z m775 30 c15 -24 30 -61 34 -81 l7 -37 -72 5 c-39 3 -74 8 -78 11 -11
11 51 147 67 147 8 0 27 -20 42 -45z m4718 -55 c0 -5 -21 -11 -47 -11 -27 -1
-40 -3 -31 -6 16 -4 14 -11 -12 -63 -17 -33 -30 -67 -30 -77 0 -30 -17 -50
-31 -36 -9 9 -4 27 19 77 17 36 29 66 27 66 -2 0 -16 -21 -31 -47 -54 -94 -86
-135 -96 -125 -7 7 -2 21 15 44 28 37 80 124 90 151 5 15 4 16 -13 7 -24 -13
-80 -13 -80 0 0 5 17 12 38 15 20 4 44 8 52 10 37 7 130 4 130 -5z m-1300 -79
c1 -30 103 -124 171 -156 30 -14 34 -21 32 -48 -10 -119 -8 -183 5 -193 12 -9
4 -20 -44 -60 -32 -27 -84 -75 -116 -106 l-58 -57 0 -66 c0 -62 1 -65 19 -55
26 13 103 13 138 -2 15 -6 34 -10 41 -9 6 1 12 -3 12 -9 0 -5 8 -10 18 -10 10
0 35 -15 55 -32 33 -30 38 -40 50 -118 16 -104 14 -164 -7 -185 -9 -9 -16 -21
-16 -27 0 -13 -80 -114 -81 -102 -1 17 -18 -31 -18 -53 -1 -22 3 -23 67 -23
37 0 62 4 55 8 -13 8 -21 167 -10 179 9 8 37 -17 37 -33 0 -19 7 -18 46 7 19
11 42 19 51 17 14 -3 8 -10 -22 -30 -64 -41 -86 -70 -83 -109 2 -22 10 -37 23
-43 15 -8 1 -12 -60 -17 -44 -5 -109 -12 -145 -17 -58 -8 -61 -9 -21 -11 33
-1 41 -4 34 -13 -6 -7 -11 -65 -12 -128 0 -63 -8 -148 -17 -188 -9 -40 -14
-82 -11 -92 3 -11 1 -18 -4 -14 -5 3 -9 -7 -9 -23 0 -20 3 -24 9 -14 7 10 9 7
8 -12 -2 -32 -1 -31 -21 -11 -9 8 -16 11 -16 5 0 -6 9 -16 20 -23 31 -19 24
-38 -12 -38 -25 0 -29 -3 -18 -10 13 -8 13 -10 -2 -10 -10 0 -20 -10 -24 -25
-7 -28 -26 -31 -67 -12 -29 13 -34 23 -14 30 6 2 0 3 -15 1 -16 -2 -28 1 -28
7 0 6 5 7 10 4 6 -3 10 1 10 9 0 10 -6 13 -15 10 -18 -7 -19 0 -4 29 9 18 9
20 -2 10 -20 -19 -32 -16 -26 7 3 11 1 20 -5 20 -6 0 -8 6 -5 14 16 40 -95 10
-127 -35 -9 -13 -16 -36 -16 -51 0 -18 -5 -28 -15 -28 -12 0 -15 14 -15 70 0
56 3 70 15 70 8 0 15 -4 15 -10 0 -17 19 -11 71 24 42 28 48 36 37 47 -7 8
-14 25 -16 39 -2 14 -15 59 -28 99 -25 75 -29 139 -9 153 6 5 4 8 -5 8 -13 0
-13 1 0 10 13 9 13 10 0 10 -13 0 -13 1 0 10 10 7 1 8 -30 3 -63 -9 -75 -9
-78 1 -2 5 38 19 87 31 50 12 98 28 108 36 14 12 16 12 8 0 -7 -12 -2 -13 26
-7 19 4 66 11 104 17 39 5 72 14 73 19 2 6 8 8 13 4 5 -3 9 2 9 11 0 15 1 15
16 1 21 -21 44 -20 44 2 0 15 -2 15 -10 2 -9 -13 -13 -12 -30 9 -11 13 -20 18
-20 12 0 -15 -59 -44 -77 -37 -10 4 -14 16 -11 36 3 17 1 30 -4 30 -4 0 -7 3
-7 8 4 21 -3 32 -18 31 -11 0 -13 -3 -5 -6 6 -2 12 -9 12 -14 0 -4 -7 -6 -15
-3 -10 4 -17 -6 -26 -40 -7 -29 -17 -46 -26 -46 -12 0 -14 9 -8 47 4 26 13 60
21 75 11 22 12 28 2 29 -7 1 -18 2 -25 3 -13 1 -46 42 -57 71 -13 34 -7 181 9
211 8 15 11 32 8 38 -3 6 -3 8 2 4 25 -23 55 63 55 157 l0 71 -72 23 c-96 31
-177 70 -187 90 -11 20 -17 110 -8 131 3 8 8 49 10 92 6 88 15 110 61 141 18
12 72 52 121 89 85 64 115 74 115 39z m2172 -382 c17 -7 31 -22 35 -37 8 -32
-32 -67 -94 -84 l-43 -12 0 -53 c0 -41 -3 -53 -16 -53 -13 0 -14 11 -8 83 4
45 7 96 6 112 0 17 0 35 2 40 5 15 86 18 118 4z m348 -75 c0 -21 18 -17 30 6
13 24 36 26 48 4 7 -13 13 -14 30 -5 37 20 71 14 82 -15 11 -27 -12 -148 -31
-168 -17 -18 -20 22 -5 59 9 21 16 55 16 76 0 34 -3 39 -24 39 -24 0 -51 -30
-57 -65 -2 -10 -10 -20 -17 -23 -10 -3 -13 5 -12 29 4 72 1 76 -25 34 -14 -22
-24 -51 -23 -65 2 -17 -2 -25 -12 -25 -11 0 -15 12 -16 40 -1 22 -5 55 -9 73
-6 27 -5 31 9 26 9 -3 16 -12 16 -20z m-4256 -23 c3 -5 -72 -11 -167 -14 -94
-3 -244 -12 -332 -20 -88 -9 -227 -18 -310 -21 -156 -7 -262 -14 -305 -21 -44
-8 -219 -9 -226 -2 -4 4 -3 7 2 7 69 2 194 10 294 19 69 6 211 16 315 22 105
6 255 17 335 24 175 15 387 18 394 6z m996 -691 c14 -27 5 -55 -27 -80 -23
-18 -24 -20 -6 -20 11 0 26 -7 33 -15 19 -22 -43 -57 -96 -53 -41 3 -42 3 -41
-29 1 -32 2 -33 44 -33 24 0 43 -3 43 -7 0 -5 -58 -7 -130 -5 -71 1 -188 3
-260 5 -93 1 -133 6 -142 16 -11 11 -4 12 42 7 30 -3 125 -6 210 -8 l155 -1 3
24 c7 54 44 147 73 182 36 43 81 51 99 17z m-1239 -21 c16 -17 29 -36 29 -42
0 -6 6 -3 13 7 18 25 90 33 121 12 19 -12 27 -28 32 -66 4 -28 11 -50 17 -50
14 0 -1 -14 -16 -16 -7 0 -20 -2 -30 -2 -10 -1 -15 -6 -12 -12 8 -14 1 -13
-42 5 -48 20 -53 19 -53 -10 0 -25 1 -25 80 -25 47 0 80 -4 80 -10 0 -12 -6
-13 -94 -10 l-69 2 7 -50 c5 -39 3 -54 -9 -66 -23 -22 -61 -20 -83 5 l-20 20
-6 -25 c-7 -28 11 -116 24 -116 4 0 10 8 13 19 6 26 76 49 88 30 14 -22 10
-35 -13 -48 -20 -10 -18 -11 15 -6 23 4 44 1 53 -6 8 -6 14 -8 14 -5 0 4 10
-2 22 -14 12 -11 24 -20 27 -20 3 0 20 31 38 68 26 56 31 75 27 117 -5 46 -2
55 35 112 23 34 48 66 57 71 20 11 56 4 48 -9 -3 -5 3 -9 13 -9 11 0 28 -6 38
-14 17 -12 15 -13 -23 -12 -23 0 -47 -5 -54 -12 -9 -9 3 -12 61 -12 45 0 70
-4 66 -10 -3 -5 -35 -10 -71 -10 -54 0 -64 -3 -65 -17 0 -15 -2 -15 -9 2 -7
16 -9 11 -9 -21 -1 -31 5 -48 24 -68 14 -15 25 -32 25 -39 -1 -28 -70 -251
-81 -258 -19 -11 0 -29 32 -29 16 0 29 -4 29 -10 0 -5 -17 -10 -38 -10 -21 0
-43 -5 -50 -12 -8 -8 -15 -8 -25 1 -12 9 -17 3 -27 -34 -14 -51 -44 -95 -65
-95 -7 0 -22 -11 -32 -24 -19 -25 -104 -76 -126 -76 -7 0 -19 -16 -26 -35 -14
-40 -105 -140 -119 -131 -6 3 -8 -2 -5 -14 5 -17 0 -20 -26 -20 -21 0 -31 -5
-31 -15 0 -8 -6 -15 -13 -15 -7 0 -23 -11 -35 -25 -12 -14 -26 -25 -32 -25 -5
0 -14 -18 -20 -40 -9 -33 -15 -40 -35 -40 -13 0 -27 4 -30 10 -3 5 -21 16 -39
25 -18 9 -47 28 -65 43 -30 24 -34 35 -43 109 -10 81 -10 83 21 147 28 58 31
74 31 155 0 189 60 484 107 522 21 18 15 29 -16 29 -17 0 -33 5 -37 11 -5 8 8
9 43 4 45 -6 53 -4 79 20 l29 27 -33 -6 c-17 -3 -43 -1 -57 4 -27 10 -34 40
-10 40 8 0 15 -7 15 -16 0 -13 7 -15 36 -11 20 3 39 8 41 11 11 10 -20 46 -52
62 -53 25 -46 46 13 42 32 -2 47 -7 47 -17 0 -8 -6 -16 -12 -18 -7 -3 -13 2
-13 11 0 9 -8 16 -20 16 -28 0 -26 -4 20 -34 22 -14 40 -33 40 -41 0 -32 19
-13 25 25 7 40 34 57 36 23 1 -15 2 -15 8 2 12 37 41 84 58 94 36 21 83 13
114 -20z m-1199 -102 c21 -24 90 -113 155 -198 134 -177 221 -279 290 -342
154 -140 182 -167 175 -167 -4 0 -353 -1 -777 -2 -424 -1 -801 -5 -840 -8 -38
-4 -71 -6 -73 -5 -8 6 12 34 31 42 12 6 70 48 128 94 59 46 139 107 178 134
40 28 77 55 84 60 25 21 185 134 257 181 85 56 173 119 210 151 63 55 126 102
135 102 6 0 27 -19 47 -42z m4963 -129 c125 -62 260 -137 247 -138 -7 0 -11
-4 -8 -8 2 -4 -21 -33 -52 -63 -66 -65 -128 -92 -246 -108 -94 -13 -217 -14
-248 -2 -13 5 -42 15 -65 22 -48 14 -50 20 -28 94 9 28 14 61 13 75 -2 19 1
24 14 22 12 -2 21 12 34 53 10 32 23 55 32 55 16 0 12 -15 -33 -125 -29 -69
-55 -142 -55 -151 0 -1 24 -10 54 -18 94 -28 258 -19 390 19 45 13 71 29 112
69 30 29 54 57 54 64 0 6 -17 20 -37 30 -21 10 -86 44 -144 75 -58 31 -114 57
-123 57 -9 0 -16 5 -16 11 0 14 30 4 105 -33z m-2967 -70 l-5 -43 47 3 c76 6
95 -43 29 -75 -35 -17 -92 -25 -107 -15 -19 13 6 172 27 172 10 0 12 -10 9
-42z m257 -350 c-7 -48 -6 -51 9 -39 18 15 79 9 102 -10 38 -32 -1 -67 -100
-89 -36 -8 -52 -8 -62 1 -18 15 -18 35 0 42 8 3 16 31 20 76 6 54 11 71 23 71
12 0 14 -9 8 -52z m314 -7 c18 -16 28 -18 48 -10 28 10 63 -4 63 -26 0 -26
-42 -55 -79 -55 -53 0 -65 11 -57 54 6 33 5 36 -18 36 -34 0 -86 -46 -86 -76
0 -22 4 -24 45 -24 25 0 45 -4 45 -10 0 -13 -76 -13 -101 0 -35 19 -16 76 37
111 37 24 75 24 103 0z m309 -405 c2 -15 6 -26 10 -24 4 2 19 10 34 17 61 31
83 -20 45 -104 -14 -30 -31 -55 -36 -55 -16 0 -13 16 9 60 23 44 26 90 7 90
-19 0 -48 -38 -59 -77 -5 -18 -15 -33 -23 -33 -10 0 -12 14 -8 62 9 91 -18 63
-47 -49 -6 -26 -17 -43 -25 -43 -19 0 -19 37 -1 81 7 19 11 49 9 67 -4 25 -2
32 11 32 9 0 16 -5 16 -12 0 -8 7 -6 17 5 23 23 37 17 41 -17z m-2282 -253 c6
-30 3 -39 -15 -54 -21 -17 -21 -21 -21 -388 l0 -371 28 6 c77 17 117 40 200
118 71 67 101 139 178 426 20 74 63 254 64 268 0 1 5 2 11 2 7 0 9 -15 4 -42
-8 -52 -65 -270 -101 -388 -58 -188 -64 -200 -144 -280 -76 -77 -118 -103
-197 -124 l-44 -11 -2 -157 -2 -158 180 0 c99 -1 289 0 422 0 156 0 244 -3
248 -10 4 -7 -131 -10 -424 -10 l-431 0 0 -130 c0 -97 -3 -130 -12 -130 -10 0
-13 31 -11 129 l1 129 -36 6 c-20 3 -167 6 -325 6 -161 0 -286 4 -283 9 3 4
150 7 326 5 l320 -3 0 157 0 157 -52 19 c-64 23 -156 108 -227 210 -50 73
-117 220 -141 311 -7 28 -23 82 -36 120 -12 39 -26 87 -30 108 -6 33 -4 37 15
37 17 0 20 -4 16 -23 -4 -13 5 -59 18 -103 14 -43 37 -117 52 -164 14 -47 47
-130 74 -185 39 -82 63 -116 132 -189 78 -82 125 -116 164 -116 13 0 15 49 15
419 l0 420 23 4 c12 2 25 5 29 6 4 0 10 -16 14 -36z m3743 -155 c1 -7 4 -79 7
-160 5 -105 3 -148 -5 -148 -7 0 -11 25 -11 68 l0 67 -298 1 -298 1 -3 -86
c-1 -47 -5 -89 -7 -93 -3 -5 -3 -22 1 -38 5 -23 12 -30 30 -30 25 0 35 -17 35
-57 0 -24 0 -24 42 11 40 35 68 46 68 27 0 -5 -8 -12 -18 -15 -10 -4 -36 -24
-57 -46 -39 -40 -40 -42 -40 -117 l0 -77 -32 -8 c-26 -7 -33 -15 -39 -43 -8
-44 -1 -271 8 -281 8 -7 175 12 220 26 29 9 49 -4 22 -14 -9 -3 -40 -9 -70
-12 -62 -8 -60 0 -39 -129 8 -49 15 -93 15 -97 0 -12 149 -8 215 5 58 12 60
14 66 48 7 48 43 103 74 117 67 31 167 2 187 -55 14 -38 13 -38 151 -21 l97
12 0 49 c0 26 -5 58 -11 70 -9 16 -9 22 0 25 6 2 11 15 11 28 0 21 -4 24 -37
24 -21 0 -55 -3 -75 -6 -34 -6 -38 -10 -38 -35 0 -26 -4 -29 -32 -30 -18 0
-42 -3 -53 -5 -11 -3 -100 -8 -198 -11 -98 -3 -180 -10 -183 -14 -6 -10 -34 0
-34 11 0 4 75 10 168 14 163 6 244 12 290 22 19 4 22 11 22 50 l0 47 -80 -7
c-43 -4 -110 -9 -147 -12 -37 -2 -104 -8 -148 -12 -44 -5 -83 -7 -87 -5 -5 2
-8 -14 -8 -36 0 -48 -15 -54 -24 -10 -12 63 -44 55 294 80 230 18 224 18 228
-10 l4 -24 101 7 c56 3 148 9 204 13 l102 6 3 85 c2 57 7 87 15 90 10 3 13
-22 11 -108 -1 -104 -12 -149 -25 -102 -5 20 -10 21 -92 15 -47 -3 -101 -8
-120 -12 l-34 -6 -3 -98 c-2 -54 -6 -101 -8 -106 -3 -5 -41 -11 -83 -15 -154
-12 -161 -15 -179 -53 -22 -45 -74 -84 -121 -90 -51 -6 -115 16 -128 45 -11
25 -25 27 -75 8 -44 -15 -226 -21 -234 -7 -5 8 -36 183 -38 219 -1 9 -17 11
-65 6 l-63 -7 -1 64 c-1 35 -1 112 1 170 2 93 0 107 -15 113 -10 3 -19 5 -20
4 -1 -2 -12 -18 -24 -35 -18 -27 -20 -33 -7 -33 29 0 17 -19 -30 -46 -55 -32
-65 -26 -72 45 -4 42 -2 51 12 51 12 0 16 -10 16 -42 0 -48 -6 -52 73 55 l42
57 0 115 c0 105 2 115 18 115 17 0 18 10 15 140 -3 137 1 157 28 130 9 -9 449
-14 504 -6 14 3 40 5 57 5 l33 1 -3 80 c-2 53 1 80 9 80 6 0 12 -6 13 -12z
m-2087 -149 c6 -41 12 -75 13 -77 1 -1 18 13 37 32 58 58 110 60 172 6 18 -16
43 -52 55 -80 12 -29 28 -50 37 -50 20 0 203 20 231 26 14 3 27 18 39 49 23
62 79 110 143 124 79 17 147 -7 225 -79 36 -34 49 -39 96 -42 l55 -4 -42 -8
c-23 -5 -42 -11 -41 -15 2 -20 -4 -22 -19 -8 -16 14 -30 14 -143 1 -69 -9
-156 -19 -194 -23 -53 -6 -72 -12 -80 -27 -6 -10 -30 -39 -53 -63 l-43 -43
-66 4 c-63 4 -69 6 -106 46 -36 39 -43 42 -91 42 -29 0 -87 -5 -130 -12 l-78
-12 5 -35 c14 -97 17 -181 7 -181 -13 0 -17 30 -31 210 -13 170 -23 250 -37
305 -5 18 -4 19 12 4 10 -10 21 -46 27 -90z m2168 47 c0 -20 6 -24 43 -29 80
-11 340 -8 413 4 40 7 76 11 78 8 3 -3 6 -72 7 -155 l1 -150 51 -18 c76 -27
107 -63 107 -123 0 -64 -32 -109 -102 -141 -66 -30 -142 -25 -201 14 -48 32
-53 44 -38 107 19 81 82 147 141 147 21 0 21 3 16 138 -3 75 -5 142 -5 147 -1
10 -442 10 -488 0 -16 -4 -23 -13 -23 -30 0 -14 -4 -25 -9 -25 -10 0 -24 118
-15 131 9 15 24 0 24 -25z m-2206 -807 c14 -11 26 -27 26 -34 0 -24 -51 -54
-112 -66 -33 -7 -61 -17 -63 -23 -2 -6 -9 -30 -15 -53 -13 -51 -37 -60 -25
-10 4 17 9 43 10 57 2 14 5 32 8 40 12 34 14 59 6 71 -15 25 12 39 76 39 48 0
68 -5 89 -21z m980 -20 c50 -40 20 -77 -97 -119 l-32 -11 49 -19 c57 -22 133
-73 117 -78 -6 -2 -24 6 -40 17 -34 25 -110 60 -128 61 -8 0 -13 -13 -13 -31
0 -20 -4 -29 -12 -27 -9 3 -14 33 -16 93 -3 79 -1 90 19 111 31 33 114 34 153
3z m2962 -317 c44 -21 40 -40 -13 -67 -23 -11 -45 -23 -48 -26 -3 -4 22 -16
55 -28 33 -12 60 -26 60 -30 0 -5 -33 4 -72 20 -95 37 -98 37 -91 -6 3 -21 1
-35 -5 -35 -12 0 -19 27 -28 112 -6 65 -6 68 17 78 29 11 79 5 125 -18z
m-5708 -242 c27 -17 32 -25 32 -59 0 -109 -73 -171 -164 -141 -45 15 -60 41
-52 92 8 49 31 85 71 109 39 24 72 24 113 -1z m1752 -5 c8 -2 18 -4 23 -4 4
-1 7 -29 7 -63 0 -70 -29 -143 -61 -153 -55 -18 -123 1 -140 39 -33 71 60 205
131 189 14 -3 32 -7 40 -8z"/>
<path d="M2282 4703 c-44 -57 -53 -79 -54 -132 0 -49 15 -91 32 -91 18 0 39
46 49 110 15 93 19 150 10 150 -4 0 -21 -17 -37 -37z"/>
<path d="M4358 4424 c-54 -41 -98 -79 -98 -85 0 -5 -6 -9 -14 -9 -11 0 -14
-23 -15 -107 -1 -59 -5 -111 -9 -117 -12 -20 0 -71 22 -92 29 -29 69 -48 154
-74 80 -23 103 -22 96 7 -5 20 120 163 132 150 4 -4 -17 -35 -46 -69 -56 -65
-54 -64 40 14 l55 46 -3 121 -3 120 -63 45 c-34 24 -79 63 -99 85 -20 23 -40
41 -44 41 -5 0 -52 -34 -105 -76z"/>
<path d="M1185 3164 c-49 -41 -164 -124 -255 -186 -90 -61 -188 -128 -216
-149 l-52 -38 34 -37 c43 -45 71 -98 75 -144 5 -46 -14 -53 -22 -9 -9 53 -35
105 -70 143 l-33 34 -46 -31 c-50 -35 -251 -189 -289 -223 -3 -2 288 -3 645
-2 357 2 651 6 654 9 3 4 43 3 90 -2 47 -4 112 -8 144 -8 l59 -1 -50 48 c-27
26 -74 70 -104 97 -30 28 -74 73 -98 102 -41 48 -45 51 -72 41 -16 -5 -41 -24
-55 -41 -36 -43 -84 -145 -84 -180 0 -19 -4 -27 -12 -24 -19 6 -11 63 16 122
28 62 81 124 119 140 l28 12 -66 81 c-36 45 -69 82 -73 82 -4 0 -49 -11 -100
-25 -67 -18 -110 -23 -150 -20 -56 5 -152 41 -152 57 0 12 5 10 47 -14 55 -33
181 -32 276 1 l67 24 -16 26 c-19 29 -91 122 -126 163 l-23 27 -90 -75z"/>
<path d="M5547 749 c-28 -17 -59 -98 -52 -136 8 -44 30 -63 70 -63 l34 0 -39
68 c-22 37 -35 69 -29 71 14 4 72 -51 60 -58 -5 -4 -4 -16 3 -29 12 -22 14
-21 37 37 13 34 30 61 37 61 16 0 10 -25 -24 -92 -21 -42 -22 -48 -8 -48 9 0
32 16 50 36 43 45 45 89 8 133 -23 27 -32 31 -77 31 -29 0 -60 -5 -70 -11z"/>
<path d="M4274 1701 c-46 -21 -89 -70 -100 -115 -7 -28 -6 -29 27 -23 19 3
100 14 182 23 81 9 147 20 147 24 0 12 -76 77 -109 94 -40 21 -97 20 -147 -3z"/>
<path d="M3659 1657 c-40 -34 -69 -82 -69 -114 0 -16 2 -32 5 -35 3 -2 33 1
67 8 35 8 89 14 121 14 31 0 57 2 57 5 0 20 -36 85 -62 113 -39 39 -81 42
-119 9z"/>
<path d="M3997 1525 c-60 -7 -111 -15 -113 -18 -3 -2 9 -18 25 -36 26 -28 35
-31 89 -31 57 0 61 2 96 40 20 22 36 45 36 50 0 11 8 12 -133 -5z"/>
<path d="M6187 1370 c-31 -25 -61 -79 -70 -128 -16 -83 108 -131 211 -83 59
28 81 58 88 119 5 42 3 50 -23 74 -24 24 -41 29 -104 34 -66 6 -77 4 -102 -16z"/>
<path d="M1652 331 c-42 -42 -57 -92 -40 -128 17 -37 81 -44 119 -14 28 22 57
100 41 110 -6 3 -12 17 -13 31 -3 21 -10 26 -40 28 -29 2 -42 -3 -67 -27z"/>
<path d="M3432 330 c-38 -23 -62 -72 -62 -126 0 -43 21 -63 66 -64 38 0 70 29
83 77 13 47 14 59 2 81 -5 9 -12 25 -15 35 -7 23 -33 22 -74 -3z"/>
</g>
</svg>
